<svg width="358" height="423" xmlns="http://www.w3.org/2000/svg" xmlns:xlink="http://www.w3.org/1999/xlink" xmlns:svgjs="http://svgjs.com/svgjs" viewBox="870 870 358 423"><svg width="358" height="357" xmlns="http://www.w3.org/2000/svg" xmlns:xlink="http://www.w3.org/1999/xlink" xmlns:svgjs="http://svgjs.com/svgjs" viewBox="0.5 0 357 357" fill="#e6f3ff" x="870" y="870"><svg xmlns="http://www.w3.org/2000/svg" xmlns:xlink="http://www.w3.org/1999/xlink" width="358" height="357" viewBox="0.331 0 356.669 356.669"><path paint-order="stroke fill markers" fill-rule="evenodd" d="M50.331 0h256.67c27.613 0 50 22.386 50 50v256.669c0 27.614-22.387 50-50 50H50.33c-27.614 0-50-22.386-50-50V49.999c0-27.613 22.386-50 50-50z"/></svg></svg><svg width="195" height="392" xmlns="http://www.w3.org/2000/svg" xmlns:xlink="http://www.w3.org/1999/xlink" xmlns:svgjs="http://svgjs.com/svgjs" viewBox="952 901 195 392" x="952" y="901"><svg width="194" height="392" xmlns="http://www.w3.org/2000/svg" xmlns:xlink="http://www.w3.org/1999/xlink" xmlns:svgjs="http://svgjs.com/svgjs" viewBox="0.254 0 193.491 392" fill="#fff" x="952" y="901"><svg xmlns="http://www.w3.org/2000/svg" xmlns:xlink="http://www.w3.org/1999/xlink" width="194" height="392" viewBox="0.933 0.832 192.967 390.938"><path paint-order="stroke fill markers" fill-rule="evenodd" d="M27.985.832h138.864c14.94 0 27.051 12.112 27.051 27.054v336.829c0 14.942-12.111 27.054-27.051 27.054H27.985c-14.94 0-27.052-12.112-27.052-27.054V27.886C.933 12.944 13.045.832 27.985.832z"/></svg></svg><svg width="180" height="368" xmlns="http://www.w3.org/2000/svg" xmlns:xlink="http://www.w3.org/1999/xlink" xmlns:svgjs="http://svgjs.com/svgjs" viewBox="0.265 0 179.47 368" fill="none" x="959" y="904"><svg xmlns="http://www.w3.org/2000/svg" xmlns:xlink="http://www.w3.org/1999/xlink" width="180" height="368" viewBox="0.677 0.545 178.968 366.971"><path paint-order="stroke fill markers" d="M24.654.545H155.67c13.242 0 23.977 10.736 23.977 23.979v319.011c0 13.244-10.735 23.98-23.977 23.98H24.654c-13.242 0-23.977-10.736-23.977-23.98V24.524C.677 11.281 11.412.544 24.654.544z"/></svg></svg><svg width="5" height="4" xmlns="http://www.w3.org/2000/svg" xmlns:xlink="http://www.w3.org/1999/xlink" xmlns:svgjs="http://svgjs.com/svgjs" viewBox="0.3 0 4.4 4" fill="#fff" x="1142" y="1252"><svg xmlns="http://www.w3.org/2000/svg" xmlns:xlink="http://www.w3.org/1999/xlink" width="5" height="4" viewBox="0.744 0.037 3.306 3.006"><path paint-order="stroke fill markers" fill-rule="evenodd" d="M.744.037H4.05v3.006H.744V.037z"/></svg></svg><svg width="5" height="4" xmlns="http://www.w3.org/2000/svg" xmlns:xlink="http://www.w3.org/1999/xlink" xmlns:svgjs="http://svgjs.com/svgjs" viewBox="0.3 0 4.4 4" fill="#fff" x="952" y="1252"><svg xmlns="http://www.w3.org/2000/svg" xmlns:xlink="http://www.w3.org/1999/xlink" width="5" height="4" viewBox="0.933 0.037 3.306 3.006"><path paint-order="stroke fill markers" fill-rule="evenodd" d="M.933.037H4.24v3.006H.933V.037z"/></svg></svg></svg><svg width="113" height="113" xmlns="http://www.w3.org/2000/svg" xmlns:xlink="http://www.w3.org/1999/xlink" xmlns:svgjs="http://svgjs.com/svgjs" viewBox="992 992 113 113" x="992" y="992"><svg width="113" height="113" xmlns="http://www.w3.org/2000/svg" xmlns:xlink="http://www.w3.org/1999/xlink" xmlns:svgjs="http://svgjs.com/svgjs" fill="#00de9a" opacity=".161" x="992" y="992"><svg xmlns="http://www.w3.org/2000/svg" xmlns:xlink="http://www.w3.org/1999/xlink" width="113" height="113"><path paint-order="stroke fill markers" fill-rule="evenodd" d="M56.5 113C25.255 113 0 87.744 0 56.5 0 25.255 25.255 0 56.5 0 87.744 0 113 25.255 113 56.5c0 31.244-25.256 56.5-56.5 56.5z"/></svg></svg><svg width="91" height="91" xmlns="http://www.w3.org/2000/svg" xmlns:xlink="http://www.w3.org/1999/xlink" xmlns:svgjs="http://svgjs.com/svgjs" fill="#00de9a" x="1003" y="1003"><svg xmlns="http://www.w3.org/2000/svg" xmlns:xlink="http://www.w3.org/1999/xlink" width="91" height="91"><path paint-order="stroke fill markers" fill-rule="evenodd" d="M45.5 91C20.338 91 0 70.66 0 45.5 0 20.338 20.338 0 45.5 0 70.66 0 91 20.338 91 45.5 91 70.66 70.66 91 45.5 91z"/></svg></svg><svg width="23" height="29" xmlns="http://www.w3.org/2000/svg" xmlns:xlink="http://www.w3.org/1999/xlink" xmlns:svgjs="http://svgjs.com/svgjs" viewBox="0 0.24 23 28.52" fill="#fff" x="1040" y="1035"><svg xmlns="http://www.w3.org/2000/svg" width="23" height="29" viewBox="0 0 23 28.52"><path paint-order="stroke fill markers" fill-rule="evenodd" d="M0 2.31v23.9c0 1.822 1.972 2.93 3.491 1.938l18.455-11.95c1.405-.9 1.405-2.976 0-3.9L3.49.373C1.972-.62 0 .487 0 2.31z"/></svg></svg></svg></svg>