<svg width="312" height="629" xmlns="http://www.w3.org/2000/svg" xmlns:xlink="http://www.w3.org/1999/xlink" xmlns:svgjs="http://svgjs.com/svgjs" viewBox="186 2216 312 629"><svg width="312" height="629" xmlns="http://www.w3.org/2000/svg" xmlns:xlink="http://www.w3.org/1999/xlink" xmlns:svgjs="http://svgjs.com/svgjs" viewBox="186 2216 312 629" x="186" y="2216"><svg width="311" height="629" xmlns="http://www.w3.org/2000/svg" xmlns:xlink="http://www.w3.org/1999/xlink" xmlns:svgjs="http://svgjs.com/svgjs" viewBox="0.263 0 310.474 629" fill="#fff" x="186" y="2216"><svg xmlns="http://www.w3.org/2000/svg" xmlns:xlink="http://www.w3.org/1999/xlink" width="311" height="629" viewBox="0.986 0.677 309.973 627.985"><path paint-order="stroke fill markers" fill-rule="evenodd" d="M44.44.677h223.065c24 0 43.454 19.458 43.454 43.46v541.066c0 24.002-19.455 43.46-43.454 43.46H44.441c-24 0-43.455-19.458-43.455-43.46V44.137C.986 20.135 20.442.677 44.441.677z"/></svg></svg><svg width="289" height="590" xmlns="http://www.w3.org/2000/svg" xmlns:xlink="http://www.w3.org/1999/xlink" xmlns:svgjs="http://svgjs.com/svgjs" viewBox="0.631 0 287.738 590" fill="none" x="197" y="2221"><svg xmlns="http://www.w3.org/2000/svg" xmlns:xlink="http://www.w3.org/1999/xlink" width="289" height="590" viewBox="0.82 0.036 287.487 589.484"><path paint-order="stroke fill markers" d="M39.335.036H249.79c21.272 0 38.515 17.246 38.515 38.52V551c0 21.273-17.243 38.519-38.515 38.519H39.335C18.064 589.52.82 572.274.82 551V38.556C.82 17.282 18.064.035 39.335.035z"/></svg></svg><svg width="7" height="6" xmlns="http://www.w3.org/2000/svg" xmlns:xlink="http://www.w3.org/1999/xlink" xmlns:svgjs="http://svgjs.com/svgjs" viewBox="0.201 0 6.599 6" fill="#fff" x="491" y="2779"><svg xmlns="http://www.w3.org/2000/svg" xmlns:xlink="http://www.w3.org/1999/xlink" width="7" height="6" viewBox="0.89 0.232 5.311 4.829"><path paint-order="stroke fill markers" fill-rule="evenodd" d="M.89.232H6.2v4.829H.89V.232z"/></svg></svg><svg width="7" height="6" xmlns="http://www.w3.org/2000/svg" xmlns:xlink="http://www.w3.org/1999/xlink" xmlns:svgjs="http://svgjs.com/svgjs" viewBox="0.201 0 6.599 6" fill="#fff" x="186" y="2779"><svg xmlns="http://www.w3.org/2000/svg" xmlns:xlink="http://www.w3.org/1999/xlink" width="7" height="6" viewBox="0.986 0.232 5.311 4.829"><path paint-order="stroke fill markers" fill-rule="evenodd" d="M.986.232h5.311v4.829H.987V.232z"/></svg></svg></svg><svg width="76" height="11" xmlns="http://www.w3.org/2000/svg" xmlns:xlink="http://www.w3.org/1999/xlink" xmlns:svgjs="http://svgjs.com/svgjs" viewBox="307 2237 76 11" x="307" y="2237"><svg width="7" height="7" xmlns="http://www.w3.org/2000/svg" xmlns:xlink="http://www.w3.org/1999/xlink" xmlns:svgjs="http://svgjs.com/svgjs" viewBox="0 0 6.999 7" fill="#fff" x="307" y="2239"><svg xmlns="http://www.w3.org/2000/svg" xmlns:xlink="http://www.w3.org/1999/xlink" width="7" height="7" viewBox="0.21 0.856 5.794 5.795"><path paint-order="stroke fill markers" fill-rule="evenodd" d="M3.106 6.65A2.895 2.895 0 0 1 .21 3.753 2.895 2.895 0 0 1 3.106.856a2.895 2.895 0 0 1 2.898 2.897A2.895 2.895 0 0 1 3.106 6.65z"/></svg></svg><svg width="11" height="11" xmlns="http://www.w3.org/2000/svg" xmlns:xlink="http://www.w3.org/1999/xlink" xmlns:svgjs="http://svgjs.com/svgjs" viewBox="0.001 0 10.999 11" fill="#fff" x="372" y="2237"><svg xmlns="http://www.w3.org/2000/svg" xmlns:xlink="http://www.w3.org/1999/xlink" width="11" height="11" viewBox="0.391 0.924 9.656 9.657"><path paint-order="stroke fill markers" fill-rule="evenodd" d="M5.22 10.582A4.824 4.824 0 0 1 .39 5.753 4.824 4.824 0 0 1 5.22.924a4.824 4.824 0 0 1 4.827 4.83 4.824 4.824 0 0 1-4.828 4.828z"/></svg></svg><svg width="37" height="5" xmlns="http://www.w3.org/2000/svg" xmlns:xlink="http://www.w3.org/1999/xlink" xmlns:svgjs="http://svgjs.com/svgjs" viewBox="0 0.526 37 3.948" fill="#fff" x="324" y="2240"><svg xmlns="http://www.w3.org/2000/svg" width="37" height="5" viewBox="0.108 0.821 36.212 3.863"><path paint-order="stroke fill markers" fill-rule="evenodd" d="M2.04.821h32.349a1.932 1.932 0 0 1 0 3.864H2.039a1.932 1.932 0 0 1 0-3.864z"/></svg></svg></svg></svg>